<svg width="32" height="32" viewBox="0 0 24 24" fill="none" xmlns="http://www.w3.org/2000/svg">
<path d="M16 4V5.99951C14.4089 5.99977 12.8829 6.63205 11.7578 7.75731C10.6327 8.88255 10.0005 10.4087 10.0003 12H8C8.00026 9.8782 8.84325 7.84336 10.3435 6.34309C11.8438 4.84283 13.8784 4 16 4Z" fill="black"/>
<path d="M16 8.00293V10.0034C15.4703 10.0037 14.9624 10.214 14.5877 10.5883C14.2129 10.9626 14.0018 11.4702 14.0007 11.9999H12.0015C12.0023 10.9398 12.4238 9.92329 13.1736 9.17382C13.9234 8.42433 14.9399 8.00319 16 8.00293Z" fill="black"/>
<path d="M8 16V14.0005C8.53042 14.0003 9.03905 13.7894 9.41412 13.4143C9.78918 13.0392 10 12.5305 10.0003 12H12.0005C12.0002 13.061 11.5786 14.0784 10.8284 14.8285C10.0782 15.5786 9.06083 16 8 16Z" fill="black"/>
<path d="M16 12C16 13.0506 15.7931 14.091 15.391 15.0617C14.989 16.0324 14.3997 16.9144 13.6568 17.6572C12.9139 18.4001 12.032 18.9894 11.0614 19.3913C10.0908 19.7933 9.05053 20.0002 8 20V18.0005C8.78802 18.0008 9.56838 17.8458 10.2965 17.5443C11.0246 17.2429 11.6861 16.8009 12.2434 16.2437C12.8007 15.6864 13.2427 15.0248 13.5443 14.2967C13.8458 13.5686 14.0009 12.7881 14.0008 12H16Z" fill="black"/>
</svg>
